#N canvas 577 66 1103 785 12;
#X obj 374 276 adc~;
#X obj 372 320 *~;
#X obj 375 414 tabwrite~ audioData;
#X obj 293 106 vu 15 120 empty empty -1 -8 0 10 -66577 -1 1 0;
#X obj 302 342 env~;
#X obj 302 396 - 90;
#X floatatom 181 132 5 0 100 1 in-level - -;
#X msg 416 382 start;
#X msg 476 382 stop;
#N canvas 0 50 450 250 (subpatch) 0;
#X array audioData 979200 float 2;
#X coords 0 1 979200 -1 100 70 1 0 0;
#X restore 680 122 graph;
#X obj 116 111 tgl 15 0 empty empty start/stop_recording 17 7 0 10
-262144 -1 -1 0 1;
#X obj 588 295 sel 1;
#X obj 586 324 bng 15 250 50 0 empty empty empty 17 7 0 10 -262144
-1 -1;
#X obj 616 327 bng 15 250 50 0 empty empty empty 17 7 0 10 -262144
-1 -1;
#X obj 585 359 timer;
#X floatatom 585 398 5 0 0 0 - - -;
#X obj 581 571 tabread4~ audioData;
#X obj 581 608 *~;
#X obj 119 209 hsl 128 15 0 1 0 0 empty empty output_volume -2 -8 0
10 -262144 -1 -1 0 1;
#X obj 612 678 dac~;
#X obj 580 511 phasor~;
#X obj 581 543 *~;
#X obj 624 541 * 44.1;
#X obj 587 430 t f f;
#X obj 584 471 expr 1000 / $f1;
#X msg 539 496 0;
#X obj 117 133 bng 15 250 50 0 empty empty play 17 7 0 10 -262144 -1
-1;
#X msg 654 510 0;
#X obj 117 156 bng 15 250 50 0 empty empty pause 17 7 0 10 -262144
-1 -1;
#X msg 883 693 \; audioData const 0;
#X obj 117 178 bng 15 250 50 0 empty empty delete_current_audio 17
7 0 10 -262144 -1 -1;
#X obj 531 679 outlet~;
#X msg 451 337;
#X obj 613 608 *~;
#X obj 118 239 hsl 128 15 0 127 0 0 empty empty playback_volume -2
-8 0 10 -262144 -1 -1 0 1;
#X connect 0 0 1 0;
#X connect 1 0 2 0;
#X connect 1 0 4 0;
#X connect 4 0 5 0;
#X connect 5 0 3 0;
#X connect 6 0 1 1;
#X connect 7 0 2 0;
#X connect 8 0 2 0;
#X connect 10 0 11 0;
#X connect 11 0 12 0;
#X connect 11 1 13 0;
#X connect 12 0 7 0;
#X connect 12 0 14 0;
#X connect 13 0 8 0;
#X connect 13 0 14 1;
#X connect 14 0 15 0;
#X connect 15 0 23 0;
#X connect 16 0 17 0;
#X connect 16 0 2 0;
#X connect 16 0 33 0;
#X connect 17 0 31 0;
#X connect 18 0 17 1;
#X connect 20 0 21 0;
#X connect 21 0 16 0;
#X connect 22 0 21 1;
#X connect 23 0 24 0;
#X connect 23 1 22 0;
#X connect 24 0 20 0;
#X connect 25 0 20 0;
#X connect 26 0 24 0;
#X connect 26 0 27 0;
#X connect 27 0 20 1;
#X connect 28 0 25 0;
#X connect 30 0 29 0;
#X connect 33 0 19 0;
#X connect 33 0 19 1;
#X connect 34 0 33 1;
#X coords 0 -1 1 1 250 165 2 100 100;
